<?xml version="1.0" encoding="UTF-8" standalone="no"?>
<!-- Created with Inkscape (http://www.inkscape.org/) -->

<svg
   width="200.12004mm"
   height="131.53046mm"
   viewBox="0 0 200.12004 131.53045"
   version="1.1"
   id="svg5"
   xmlns="http://www.w3.org/2000/svg"
   xmlns:svg="http://www.w3.org/2000/svg">
  <defs
     id="defs2" />
  <g
     id="layer1"
     transform="translate(-4.9399786,-82.734771)">
    <g
       aria-label="Ve"
       id="text113"
       style="font-size:153.896px;stroke-width:12.8246">
      <g
         id="g7285"
         transform="translate(-2.5061386,6.1211192)">
        <path
           d="m 68.652703,203.63196 c -2.359739,0 -4.975971,-0.46169 -7.848696,-1.38507 -2.770128,-0.92337 -5.437659,-2.46233 -8.002592,-4.61688 -2.462336,-2.25714 -4.565581,-5.28376 -6.309735,-9.07986 l -32.31816,-72.9467 c -2.872725,-6.46363 -3.488309,-12.67077 -1.846752,-18.621416 1.744155,-5.950645 5.745451,-10.311032 12.003888,-13.08116 l 2.462336,-1.077272 c 6.668827,-2.975323 12.670771,-2.975323 18.005832,0 5.437658,2.872725 9.490252,7.540904 12.157783,14.004536 0.205195,0.307792 0.153896,0.615584 -0.153896,0.923376 -0.205195,0.205195 -0.461688,0.307792 -0.76948,0.307792 -0.512987,0 -0.820779,-0.205195 -0.923376,-0.615584 -2.564933,-5.950645 -6.207138,-10.259733 -10.926615,-12.927264 -4.719477,-2.770128 -10.259733,-2.770128 -16.620768,0 l -2.462336,1.077272 c -5.848048,2.564933 -9.490253,6.617528 -10.926616,12.157784 -1.436363,5.540256 -0.872077,11.285706 1.692856,17.236346 l 32.31816,72.94671 c 2.359738,5.23246 5.488956,8.87466 9.387655,10.92661 3.898699,1.94935 7.592203,2.92403 11.080512,2.92403 3.488309,0 7.233112,-0.97468 11.234408,-2.92403 4.001296,-1.94935 7.130514,-5.59155 9.387655,-10.92661 l 30.625304,-72.79281 c 2.56493,-5.95065 3.12922,-11.6448 1.69285,-17.082454 -1.43636,-5.540256 -5.02727,-9.644149 -10.77272,-12.31168 l -2.30844,-1.077272 c -4.10389,-1.949349 -8.05389,-2.616232 -11.849986,-2.000648 -3.796101,0.615584 -7.130514,2.205843 -10.003239,4.770776 -2.872725,2.564933 -5.129867,5.848048 -6.771424,9.849344 L 65.728679,132.37811 c -0.102597,0.30779 -0.359091,0.46169 -0.76948,0.46169 -0.820779,0 -1.128571,-0.35909 -0.923376,-1.07727 L 78.194255,96.674242 c 1.744155,-4.411685 4.206491,-8.002592 7.387008,-10.77272 3.180517,-2.770128 6.771423,-4.462984 10.772719,-5.078568 4.103888,-0.615584 8.361678,0.102597 12.773368,2.154544 l 2.30844,1.077272 c 6.25843,2.872725 10.20843,7.233112 11.84999,13.08116 1.64156,5.84805 1.07727,12.05518 -1.69286,18.62141 l -30.625298,72.79281 c -1.641557,3.8987 -3.796101,6.97662 -6.463631,9.23376 -2.564933,2.15455 -5.232464,3.64221 -8.002592,4.46298 -2.770128,0.92338 -5.38636,1.38507 -7.848696,1.38507 z"
           style="-inkscape-font-specification:'Moirai One';fill:none;stroke:#005eff;stroke-width:8;stroke-dasharray:none;stroke-opacity:1"
           id="path386" />
        <path
           d="m 165.24606,204.14411 q -12.00389,0 -21.39155,-4.77078 -9.38765,-4.77077 -14.77401,-13.54285 -5.38636,-8.77207 -5.38636,-20.77595 0,-10.77272 5.07857,-19.69869 5.07857,-8.92597 14.31232,-14.15843 9.38766,-5.38636 21.69934,-5.38636 h 2.30844 q 12.15778,0 20.16038,5.07856 8.15648,4.92468 12.15778,12.61948 4.15519,7.5409 4.15519,15.54349 0,2.77013 -2.00065,4.77078 -2.00064,1.84675 -4.77077,1.84675 h -37.70452 q -1.07727,0 -1.07727,-0.92338 0,-0.92337 1.07727,-0.92337 h 37.70452 q 2.15454,0 3.53961,-1.23117 1.38506,-1.38506 1.38506,-3.53961 0,-7.5409 -3.8474,-14.77401 -3.8474,-7.23312 -11.5422,-11.85 -7.5409,-4.77077 -19.237,-4.77077 h -2.30844 q -11.84999,0 -20.77596,5.07857 -8.77207,5.07856 -13.69674,13.54284 -4.77078,8.46428 -4.77078,18.77532 0,11.3883 5.07857,19.85258 5.23246,8.31038 14.15843,12.92726 9.07986,4.46299 20.46817,4.46299 13.08116,0 22.62271,-4.61688 9.69545,-4.61688 13.08116,-14.77402 0.30779,-0.61558 0.92338,-0.61558 0.61558,0 0.76948,0.46168 0.15389,0.46169 0,0.76948 -3.69351,10.77272 -13.69675,15.6974 -10.00324,4.92467 -23.69998,4.92467 z"
           style="-inkscape-font-specification:'Moirai One';fill:none;stroke:#005eff;stroke-width:8;stroke-dasharray:none;stroke-opacity:1"
           id="path376" />
      </g>
    </g>
  </g>
</svg>
